<?xml version="1.0" encoding="utf-8"?>
<!-- Generator: Adobe Illustrator 24.2.0, SVG Export Plug-In . SVG Version: 6.00 Build 0)  -->
<svg version="1.1" id="Layer_1" xmlns="http://www.w3.org/2000/svg" xmlns:xlink="http://www.w3.org/1999/xlink" x="0px" y="0px"
	 viewBox="0 0 1000 1000" style="enable-background:new 0 0 1000 1000;" xml:space="preserve">
<style type="text/css">
	.st0{fill:#E81E25;}
</style>
<g>
	<path class="st0" d="M851.2,332.9c-0.5-16.3-1.1-32.7-1.9-49c-0.6-12.1-1.6-24.1-2.6-36.1c-0.9-11.6-2-23.1-2.9-34.7
		c-0.1-1.2-0.5-2.3-1.4-3.2c-14-13.9-28.3-27.4-43.7-39.7C712,101.3,613.4,66.1,502.6,65c-19.1-0.2-38.2,0.9-57.3,3
		c-16.5,1.9-32.9,4.6-49.1,8.2c-38.8,8.6-75.9,21.9-111.3,39.9c-47.6,24.2-89.8,55.8-127.2,93.9c-0.7,0.7-1.3,1.9-1.4,2.9
		c-1,10.5-2,21.1-2.8,31.6c-1.1,14.8-2.1,29.6-3,44.5c-1.3,21-1.9,42.1-2,63.2c-0.2,28.6,0.7,57.2,3.2,85.7
		c1.3,14.2,2.8,28.5,4.7,42.6c3,22.6,7.5,45,13.2,67.2c13.5,52.7,35,101.9,65.3,147.2c23,34.4,49.9,65.6,79.9,94.1
		c32.5,31,67,59.6,103.1,86.3c26.7,19.8,53.7,39.2,80.5,58.8c0.4,0.3,0.9,0.6,1.5,1c0.7-0.5,1.3-0.9,1.8-1.2
		c23.8-17.3,47.6-34.6,71.4-52c36.2-26.5,71.2-54.6,104-85.3c23.5-22,45.8-45.1,65.5-70.6c25.9-33.4,47.7-69.2,64.2-108.2
		c19.9-47.1,31.7-96.3,38.1-146.9c1.8-14,2.9-28.1,4.1-42.1c1.7-19.8,2.3-39.7,2.5-59.6C851.6,357,851.6,345,851.2,332.9z
		 M807,374.1c-0.3,18.3-0.9,36.6-2.6,54.8c-1.3,14.4-2.7,28.8-4.6,43.2c-5.4,40-14.6,79.2-29.3,116.9c-15.9,40.7-38.1,77.8-65,112.1
		c-18,23-38.3,43.7-59.6,63.6c-31.5,29.5-65.1,56.4-100,81.8c-14.7,10.7-29.5,21.4-44.2,32.1c-0.5,0.4-1.1,0.7-1.8,1.2
		c-0.6-0.4-1-0.6-1.3-0.8c-22.8-16.7-45.9-33.2-68.5-50.3c-30.6-23.1-59.6-47.9-87.3-74.4c-31.8-30.5-59.5-64.3-82.4-102
		C239,616.5,223.5,578.3,213,538c-5-19.3-8.8-38.9-11.8-58.6c-3.3-21.4-5.3-42.9-6.6-64.5c-1.9-31.1-2.2-62.2-1-93.3
		c0.6-17.2,1.6-34.3,2.7-51.5c0.8-12.2,1.9-24.4,2.8-36.7c0.1-1.7,0.9-2.7,2-3.7c30.3-28.9,63.9-53.2,101.1-72.4
		c36.2-18.8,74.4-32.1,114.5-39.9c15.4-3,30.9-5.1,46.6-6.4c20.5-1.7,41-2,61.5-0.9c57.1,3.2,111.5,17.2,163.1,42.2
		c40.7,19.7,77.3,45.3,110.1,76.4c2,1.9,3,3.8,3.2,6.7c0.9,12.8,2.1,25.5,3,38.3c0.7,10.4,1.3,20.8,1.8,31.2
		C806.9,327.9,807.5,351,807,374.1z"/>
	<path class="st0" d="M485.7,334c0,1.7,0.4,3,1.4,4.4c3.8,5.3,7.6,10.6,11.4,15.9c0.4,0.6,0.9,1.1,1.6,2c4.3-6,8.3-11.7,12.4-17.3
		c1.2-1.7,1.8-3.3,1.8-5.4c0.4-21.4,0.9-42.7,1.4-64.1c0.6-24.8,1.1-49.6,1.7-74.4c0-0.7-0.1-1.5-0.1-2.2c-6,11.8-11.5,23.6-17,35.3
		c0,0.1-0.1,0.1-0.2,0.1c-0.1,0-0.2,0-0.4,0c-5.6-11.9-11-23.9-16.9-35.7c-0.3,0.5-0.3,1-0.3,1.5c0.6,25.1,1.2,50.1,1.8,75.2
		C484.8,291,485.3,312.5,485.7,334z"/>
	<path class="st0" d="M554.8,585.5c-0.9-0.2-1.6-0.5-2.3-0.6c-8.2-1.5-16.4-3-24.6-4.5c-1.1-0.2-2.3-0.7-3.3-1.3
		c-7.4-4.8-14.7-9.8-22-14.7c-0.6-0.4-1.1-0.9-1.6-1.4c0.3-0.5,0.5-0.8,0.7-1.1c4.6-6.3,9.2-12.6,14-18.8c0.7-1,1.9-1.7,3.1-2.2
		c5.7-2.5,11.4-4.9,17.2-7.2c1.4-0.6,2-1.3,2.2-2.8c0.2-1.9,0.6-3.8,0.9-5.8c0.6-3.7,1.1-7.5,1.7-11.3c-0.5-0.1-0.7-0.3-1-0.2
		c-9.5,1.1-19,2.3-28.5,3.4c-1.3,0.2-2.2,0.7-2.9,1.8c-1.9,2.8-3.9,5.5-5.8,8.2c-0.7,1-1.5,2-2.4,3.3c-2.7-3.8-5.3-7.2-7.6-10.8
		c-1.1-1.7-2.5-2.5-4.5-2.7c-5.8-0.6-11.6-1.4-17.4-2.1c-3.6-0.4-7.1-0.8-11.1-1.3c1,6.6,2,12.9,3,19.3c1,0.4,1.9,0.9,2.8,1.3
		c5.3,2.2,10.6,4.5,15.9,6.6c1.6,0.6,2.8,1.5,3.9,3c4.2,5.8,8.5,11.5,12.7,17.3c0.5,0.7,0.9,1.4,1.4,2.1c-0.4,0.4-0.8,0.7-1.1,1
		c-7.6,5.1-15.3,10.2-23,15.3c-0.8,0.5-1.8,0.9-2.8,1.1c-8.3,1.5-16.6,3-24.9,4.5c-0.6,0.1-1.2,0.3-2.1,0.6
		c2.9,5.9,5.7,11.6,8.5,17.3c1-0.1,1.7-0.2,2.4-0.4c9.2-2.2,18.4-4.4,27.6-6.5c1.6-0.4,2.5-1.2,3.1-2.7c4-9,8-18,12-26.9
		c0.3-0.6,0.7-1.2,1.2-2.2c0.7,1.4,1.2,2.4,1.6,3.4c3.8,8.6,7.7,17.1,11.4,25.7c0.7,1.6,1.6,2.4,3.4,2.8c9,2.1,18.1,4.3,27.1,6.4
		c0.9,0.2,1.8,0.3,2.7,0.5C549.2,597,551.9,591.3,554.8,585.5z"/>
	<path class="st0" d="M417.4,348.3c-60.2,41.5-120,82.7-179.9,124c5.8,8.6,11.5,17,17.3,25.5C262.7,491.5,415.9,350.7,417.4,348.3z"
		/>
	<path class="st0" d="M583.1,349.5c53.9,49.4,107.9,98.8,162,148.4c5.8-8.6,11.5-17,17.4-25.6c-59.8-41.2-119.4-82.3-178.9-123.4
		C583.4,349.1,583.2,349.3,583.1,349.5z"/>
	<path class="st0" d="M518.3,665.1c-0.3-1.6-0.8-3.2-1.2-4.9c-1,0.5-1.8,0.8-2.5,1.2c-4.2,2.1-8.5,4.1-12.7,6.3
		c-1.4,0.7-2.6,0.7-3.9-0.1c-1-0.6-2.1-1.1-3.2-1.6c-3.9-1.9-7.8-3.8-12-5.9c-4.1,19.2-8.1,38.1-12.2,57
		c9.9,8.5,19.6,16.8,29.3,25.1c0.8-0.7,1.4-1.1,2-1.6c8.5-7.2,16.9-14.5,25.4-21.7c1.6-1.3,1.9-2.5,1.5-4.5
		C525.3,697.9,521.9,681.5,518.3,665.1z"/>
	<path class="st0" d="M637.3,245.6c-13.9-3.1-27.7-6.2-41.6-9.3c-19.2,37.1-38.2,73.9-57.2,110.7C541.6,345,636.2,247.6,637.3,245.6
		z"/>
	<path class="st0" d="M461.2,346.5c-19-36.7-37.9-73.4-57-110.2c-14,3.1-27.7,6.2-42.1,9.4c33.1,34,65.8,67.6,98.5,101.2
		C460.8,346.8,461,346.6,461.2,346.5z"/>
	<path class="st0" d="M428.5,351.5c-0.1-0.1-0.2-0.2-0.3-0.3C371.7,402,315.2,452.7,258.7,503.6c18.7,25.4,37.2,50.7,55.8,75.9
		c0.2-0.1,0.3-0.2,0.5-0.3c-12.4-23.3-24.8-46.6-37.2-70C328.1,456.5,378.3,404,428.5,351.5z"/>
	<path class="st0" d="M572,352c50.1,52.3,100.1,104.6,150,156.8c0,0.5,0,0.6,0,0.6c-0.1,0.2-0.1,0.4-0.2,0.5
		c-11.7,22.1-23.4,44.1-35.2,66.2c-0.3,0.5-0.5,1-0.8,1.5c-0.1,0.2-0.1,0.3-0.2,0.5c0,0.1,0,0.2,0.1,0.2c0,0.1,0.1,0.1,0.3,0.2
		c18.4-25,36.7-49.9,55.2-75.1c-56.4-50.7-112.7-101.3-169-151.9C572.2,351.8,572.1,351.9,572,352z"/>
	<path class="st0" d="M561.9,221.4c-12.9-5.9-25.5-11.6-38.4-17.5c-0.2,43.2-0.3,85.8-0.5,128.5c0.2,0,0.4,0,0.6,0
		C536.3,295.5,549.1,258.6,561.9,221.4z"/>
	<path class="st0" d="M477.1,332.5c-0.2-42.7-0.3-85.4-0.5-128.6c-13.1,6-25.7,11.7-38.4,17.6c12.8,37.2,25.6,74.2,38.3,111.1
		C476.7,332.5,476.9,332.5,477.1,332.5z"/>
	<path class="st0" d="M451.6,349.8c-32.4-33.4-64.7-66.9-97.2-100.5c-6.9,9.5-13.7,18.8-20.7,28.4c39.3,24.3,78.4,48.5,117.5,72.7
		C451.3,350.1,451.4,349.9,451.6,349.8z"/>
	<path class="st0" d="M666.4,277.7c-7-9.6-13.7-18.9-20.5-28.2c-3.2,2.5-96.1,98.8-97.3,101C588,326.1,627,302,666.4,277.7z"/>
	<path class="st0" d="M335.6,551.9c-0.5-1.9-0.2-3.2,1.1-4.7c10.5-11.8,21-23.6,31.4-35.4c0.7-0.7,1.3-1.5,2-2.4
		c-6.4-8.5-12.6-16.9-19-25.5c-12.9,14.2-25.5,28.1-38.3,42.1c13.4,33.7,26.8,67.2,40.1,100.7c0.4-0.7,0.3-1.2,0.2-1.7
		C347.3,600.6,341.5,576.3,335.6,551.9z"/>
	<path class="st0" d="M685.5,524.2c-11.6-12.7-23.2-25.4-34.7-38.1c-0.6-0.6-1-1.3-1.8-2.3c-6.7,9-12.9,17.4-19.2,25.8
		c0.8,0.9,1.3,1.5,1.9,2.2c10.3,11.7,20.7,23.4,31.1,35c1.7,1.8,2.1,3.4,1.5,5.9c-5.9,24.1-11.6,48.2-17.4,72.2
		c-0.1,0.5-0.1,1.1-0.2,1.7c0.7-0.7,1-1.4,1.3-2.2c12.7-32,25.4-64,38.2-95.9C687,526.6,686.8,525.5,685.5,524.2z"/>
	<path class="st0" d="M374.5,417.2c-0.1,0-0.2,0-0.3,0c-0.1,0.3-0.3,0.7-0.4,1c-5.5,17.9-10.9,35.8-16.4,53.7
		c-0.5,1.6,0,2.6,0.9,3.7c19.4,24.2,38.8,48.4,58.2,72.6c0.6,0.7,1.2,1.4,2,2.4c4-7.7,8-15.1,11.9-22.5c-3.2-3.5-6.1-6.8-9.1-10.1
		c-15.7-17.4-31.3-34.8-47-52.1c-1-1.1-1.6-2-1.5-3.7c0.7-12.5,1.2-25,1.8-37.6C374.6,422.2,374.5,419.7,374.5,417.2z"/>
	<path class="st0" d="M534,622c-1,1.4-2,1.9-3.7,1.8c-5.1-0.4-10.2-0.6-15.3-0.8c-6-0.2-12.1-0.7-18.1-0.5
		c-9.1,0.2-18.2,0.8-27.3,1.4c-1.7,0.1-2.7-0.3-3.7-1.7c-3.1-4.4-6.3-8.8-9.4-13.1c-0.4-0.6-0.9-1.1-1.3-1.6
		c-0.2,0.1-0.3,0.1-0.5,0.2c1,10.2,2,20.4,3,30.6c0.9,0.4,1.6,0.8,2.4,1.2c12.5,5.8,25.1,11.6,37.6,17.5c1.7,0.8,3,0.7,4.7-0.1
		c12.5-5.9,25.1-11.7,37.6-17.5c0.8-0.3,1.5-0.7,2.3-1.2c1-10.3,2-20.5,3-30.7c-0.2-0.1-0.3-0.1-0.5-0.2c-0.5,0.6-1,1.2-1.5,1.8
		C540.2,613.4,537,617.6,534,622z"/>
	<path class="st0" d="M571.9,525.6c-0.7,0.8-1.4,1.7-2.2,2.5c2.9,7.1,5.5,14.1,8.6,21.3c0.7-0.8,1.2-1.3,1.6-1.8
		c20.6-24,41.2-48.1,61.9-72c1.2-1.4,1.2-2.7,0.7-4.3c-5.3-17.1-10.5-34.2-15.7-51.3c-0.3-0.9-0.6-1.9-0.9-2.8c-0.2,0-0.3,0-0.5,0.1
		c0,0.9,0,1.7,0,2.6c0.6,13.7,1.2,27.4,1.9,41.2c0.1,2.2-0.5,3.8-2,5.4C607.4,486.2,589.6,505.9,571.9,525.6z"/>
	<path class="st0" d="M336.5,367.8c-5.1-10.2-10.2-20.4-15.4-30.6c-0.8-1.6-0.8-2.8,0-4.4c3.6-7.4,7.1-14.9,10.6-22.4
		c0.3-0.7,0.8-1.4,1.3-2.3c29.5,10.7,58.9,21.3,88.2,32c0.1-0.2,0.1-0.3,0.2-0.5c-31.2-17.8-62.4-35.5-93.8-53.4
		c-9.1,17.5-18.1,34.7-27.2,52.2c12.5,11,24.8,21.8,37.2,32.7C337.5,369.7,337,368.7,336.5,367.8z"/>
	<path class="st0" d="M579.7,339.7c29.1-10.5,58.2-21.1,87.4-31.7c0.5,1,0.8,1.5,1.1,2.1c3.6,7.6,7.1,15.1,10.7,22.6
		c0.8,1.6,0.7,2.9-0.1,4.4c-5.2,10.2-10.3,20.4-15.4,30.6c-0.4,0.9-0.8,1.8-1.2,2.7c0.1,0.1,0.3,0.2,0.4,0.3
		c12.3-10.9,24.7-21.7,37-32.6c-9.1-17.5-18.1-34.7-27.2-52.2c-31.2,17.7-62.1,35.4-93.1,53C579.5,339.3,579.6,339.5,579.7,339.7z"
		/>
	<path class="st0" d="M305.1,526.5c-0.8-2-0.6-3.3,0.8-4.9c12.7-14.2,25.3-28.5,37.9-42.7c1-1.1,1.8-2.6,2.3-4
		c3.6-10.8,7-21.7,10.5-32.6c0.2-0.7,0.4-1.5,0.6-2.3c-0.1-0.1-0.3-0.2-0.4-0.2c-22.7,23.9-45.3,47.8-68.1,71.8
		c14.9,30.6,29.8,61.1,44.7,91.7c0.2,0,0.3-0.1,0.5-0.1c-0.4-1.2-0.8-2.4-1.3-3.6C323.4,575.1,314.3,550.8,305.1,526.5z"/>
	<path class="st0" d="M643.2,439.7c-0.3,0.6-0.3,0.8-0.2,1.1c3.7,11.6,7.4,23.1,11.2,34.7c0.4,1.2,1.1,2.3,2,3.3
		c12.6,14.3,25.2,28.5,37.9,42.7c1.5,1.7,1.7,3,0.9,5.1c-9.3,24.5-18.6,49.1-27.8,73.7c-0.3,0.9-0.6,1.8-1,2.7
		c0.2,0.1,0.3,0.1,0.5,0.2c14.9-30.5,29.8-61,44.7-91.6C688.6,487.5,665.9,463.6,643.2,439.7z"/>
	<path class="st0" d="M359.5,577.2c-0.3-1.8,0.1-3.1,1.3-4.5c9.2-11.2,18.4-22.4,27.6-33.6c1.1-1.3,2.1-2.6,3.3-4
		c-5.8-6.4-11.5-12.7-17.4-19.1c-0.6,0.7-1.1,1.1-1.5,1.6c-9,11.2-18,22.5-27,33.7c-1.1,1.4-1.3,2.6-0.8,4.3
		c7.1,26.1,14.1,52.1,21.1,78.2c0.3,1.1,0.6,2.1,1,3.2c0.1,0,0.2-0.1,0.4-0.1c-1-7.5-1.9-15.1-2.9-22.6
		C362.8,601.8,361.2,589.5,359.5,577.2z"/>
	<path class="st0" d="M654.2,551.1c-8.9-11-17.7-22-26.5-33c-0.6-0.7-1.2-1.4-1.9-2.3c-5.9,6.5-11.6,12.8-17.4,19.1
		c1,1.2,1.8,2.3,2.6,3.3c9.4,11.5,18.8,23,28.3,34.4c1.1,1.3,1.6,2.6,1.3,4.3c-0.6,4.1-1.1,8.3-1.7,12.4c-1.6,12.3-3.2,24.6-4.9,37
		c-0.5,3.5-0.9,7-1.3,10.4c0.1,0,0.2,0.1,0.3,0.1c0.3-0.8,0.6-1.7,0.8-2.5c7.1-26.3,14.1-52.6,21.3-78.9
		C655.6,553.6,655.3,552.5,654.2,551.1z"/>
	<path class="st0" d="M249.8,454.2c50.6-35.6,101.2-71.3,151.9-106.9c0.1,0,0.1-0.2,0.1-0.2c0-0.1-0.1-0.1-0.4-0.3
		c-0.6,0.3-1.4,0.7-2.1,1.1c-42.9,23.9-85.8,47.8-128.6,71.6c-1.4,0.8-2.5,1.8-3.3,3.2c-6.1,10.1-12.3,20.1-18.5,30.1
		c-0.4,0.7-0.8,1.4-1.2,2.1c0.1,0.1,0.2,0.2,0.3,0.4C248.6,455,249.2,454.6,249.8,454.2z"/>
	<path class="st0" d="M598.5,346.8c3.2,3.4,151.5,107.4,153.7,108.2c-0.6-1.1-1.1-1.9-1.6-2.8c-6-9.7-12-19.4-17.9-29.2
		c-0.9-1.6-2.1-2.7-3.7-3.6c-42.7-23.8-85.4-47.6-128.1-71.4C600.1,347.6,599.3,347.2,598.5,346.8z"/>
	<path class="st0" d="M554.5,666.1c-1.7-7.1-3.4-14.2-5.3-21.8c-9.5,4.6-18.7,9.2-28.2,13.9c4.8,17.8,9.5,35.5,14.3,53.3
		c0.6-0.3,0.9-0.4,1.2-0.7c7.6-6.4,15.1-12.9,22.7-19.3c1-0.8,1-1.6,0.7-2.7C558.1,681.3,556.3,673.7,554.5,666.1z"/>
	<path class="st0" d="M451.1,644.4c-0.3,0.5-0.4,0.6-0.5,0.8c-3.5,14.6-7,29.2-10.6,43.8c-0.3,1.3,0.1,2.1,1.1,2.9
		c7.3,6.2,14.5,12.4,21.8,18.6c0.4,0.4,1,0.6,1.7,1c4.8-17.9,9.5-35.5,14.3-53.3C469.6,653.5,460.3,649,451.1,644.4z"/>
	<path class="st0" d="M561.1,414.3c-1.7,0.3-3,1-4.2,2.4c-6.9,8.3-13.9,16.5-20.8,24.7c-1.4,1.7-3.5,3.3-4,5.2
		c-0.5,2.1,0.5,4.5,0.9,6.8c1.5,7.4,3.1,14.9,4.6,22.3c0.2,0,0.4,0,0.7,0c2.8-11.9,5.6-23.7,8.4-35.6c1.6-0.3,2.9-0.6,4.3-0.8
		c12.2-2.1,24.5-4.2,36.8-6.3c1.8-0.3,2.9-1,3.8-2.7c4-7.2,8.1-14.4,12.2-21.6c0.4-0.7,0.7-1.4,1.2-2.5c-1.2,0.1-2,0.2-2.8,0.3
		C588.5,409.2,574.8,411.8,561.1,414.3z"/>
	<path class="st0" d="M461.9,476.3c0.4-0.8,0.6-1,0.7-1.3c1.9-8.9,3.7-17.8,5.6-26.7c0.3-1.4-0.2-2.3-1.1-3.2
		c-8.1-9.5-16.1-19-24.1-28.5c-1-1.2-2.2-1.9-3.7-2.2c-14-2.6-27.9-5.2-41.9-7.8c-0.7-0.1-1.4,0-2.1,0c0.1,0.5,0.2,0.7,0.3,1
		c4.5,7.9,9,15.8,13.5,23.7c0.6,1.2,1.6,1.4,2.7,1.6c5.9,1,11.9,2.1,17.8,3.1c7.9,1.4,15.7,2.7,23.8,4.1
		C456.1,452,459,463.9,461.9,476.3z"/>
	<path class="st0" d="M531.3,341c19-35.7,37.9-71.4,57.1-107.4c-7-2.9-13.7-5.7-20.6-8.6c-12.4,38.8-24.6,77.3-36.9,115.9
		C531,340.9,531.1,341,531.3,341z"/>
	<path class="st0" d="M469,340.1c-12.2-38.3-24.4-76.6-36.7-115.2c-7,2.9-13.7,5.7-20.6,8.7c19,35.8,37.9,71.3,56.7,106.8
		C468.6,340.3,468.8,340.2,469,340.1z"/>
	<path class="st0" d="M577.6,573c-0.5,0.7-0.5,1.9-0.4,2.9c1.2,8.9,2.3,17.8,3.6,26.7c0.3,2.2-0.1,3.7-1.9,5.3
		c-8.4,7.5-16.7,15.2-25.1,22.8c0.1,0.2,0.2,0.3,0.3,0.5c19.7-9.6,39.4-19.2,59.1-28.8c-1.3-3.4-24.4-41.2-25.9-42.6
		C584.1,564.2,580.8,568.6,577.6,573z"/>
	<path class="st0" d="M443.7,628.5c-7.7-7-15.3-14-23.1-21c-1.2-1.1-1.7-2.1-1.5-3.8c1.2-7.9,2.1-15.8,3.2-23.7
		c0.8-5.9,0.9-5.9-2.6-10.6c-1.9-2.5-3.8-5.1-5.6-7.6c-0.5-0.7-1-1.3-1.7-2.1c-4.2,6-24.9,40.7-25.5,42.7c5.6,3.4,57,28.1,59,28.3
		C445.2,629.9,444.4,629.2,443.7,628.5z"/>
	<path class="st0" d="M633,578.3c-9.5-11.6-18.8-23.2-28.2-34.8c-0.4-0.5-0.6-1.1-1-1.9c-3.8,4.4-7,8.2-10.4,12.1
		c2.4,3.5,4.7,6.9,7.1,10.2c6.2,9,12.4,18,18.7,27c0.7,1,1.3,1.9,1.2,3.3c-0.8,9.6-1.6,19.2-2.3,28.8c-0.9,10.8-1.7,21.6-2.6,32.5
		c-0.1,0.9,0,1.7,0,2.6c0.1,0,0.2,0,0.3,0c0.2-0.7,0.5-1.3,0.6-2c5.8-24.5,11.7-49.1,17.6-73.6C634.4,580.8,634.1,579.6,633,578.3z"
		/>
	<path class="st0" d="M382.5,628.9c-0.9-11.1-1.7-22.2-2.7-33.3c-0.2-2,0.3-3.5,1.4-5.2c7.9-11.3,15.8-22.7,23.6-34.1
		c0.6-0.8,1.1-1.7,1.8-2.7c-3.3-3.9-6.6-7.7-10.3-12c-0.4,0.7-0.6,1.2-0.9,1.7c-9.5,11.8-19,23.5-28.6,35.3c-1,1.2-1.1,2.3-0.7,3.8
		c5.2,21.6,10.3,43.1,15.4,64.7c0.9,3.8,1.9,7.7,2.8,11.5c0.1,0,0.3,0,0.4-0.1c-0.1-1.7-0.1-3.3-0.3-5
		C383.8,645.4,383.2,637.1,382.5,628.9z"/>
	<path class="st0" d="M421.3,629.7c-0.2,0.9-0.3,1.3-0.4,1.8c-2.1,11.7-4.1,23.4-6.3,35.1c-0.3,1.7,0.1,2.7,1.3,3.8
		c5.4,4.5,10.7,9.2,16.1,13.7c0.5,0.4,1,0.7,1.8,1.2c3.3-15,6.6-29.7,9.9-44.5C436.2,637.1,428.9,633.5,421.3,629.7z"/>
	<path class="st0" d="M580.6,639.3c-0.5-3.1-1.1-6.1-1.7-9.6c-7.7,3.8-15,7.4-22.6,11.1c3.3,14.9,6.6,29.6,9.9,44.3
		c0.5-0.2,0.7-0.2,0.9-0.3c5.9-5.1,11.9-10.1,17.8-15.2c1-0.8,0.8-1.7,0.7-2.7C583.8,657.7,582.2,648.5,580.6,639.3z"/>
	<path class="st0" d="M590.5,664.5c0.6-0.4,1-0.5,1.2-0.7c5.7-4.8,11.3-9.7,17-14.5c1-0.8,1.2-1.8,1.3-2.9c0.6-8.1,1.3-16.1,2-24.2
		c0.2-2.9,0.4-5.9,0.6-9.3c-9.4,4.6-18.5,9.1-27.7,13.7C586.7,639.4,588.6,651.8,590.5,664.5z"/>
	<path class="st0" d="M387.4,613c0.2,3,0.4,5.4,0.6,7.8c0.7,8.5,1.4,17,2,25.5c0.1,1.4,0.6,2.4,1.7,3.3c5.4,4.5,10.7,9.1,16.1,13.7
		c0.5,0.4,1,0.6,1.7,1.1c1.9-12.7,3.7-25,5.6-37.8C405.9,622.2,396.9,617.6,387.4,613z"/>
	<path class="st0" d="M338.7,374.2c-0.5-0.3-0.8-0.3-1.1-0.3c-14.7,3.2-29.4,6.4-44.1,9.5c-1.5,0.3-2.5,0.9-3.2,2.2
		c-3.7,6.2-7.6,12.3-11.3,18.5c-0.3,0.5-0.6,1.1-0.9,1.6c0.1,0.1,0.2,0.3,0.3,0.4C298.4,395.5,318.5,384.8,338.7,374.2z"/>
	<path class="st0" d="M661.6,373.7c-0.1,0.2-0.1,0.3-0.2,0.5c20,10.6,40.1,21.2,60.1,31.8c0.2-0.1,0.3-0.3,0.5-0.4
		c-0.4-0.8-0.9-1.6-1.3-2.3c-3.4-5.5-6.9-11-10.2-16.6c-1.2-2-2.6-3-4.9-3.5c-9.4-1.9-18.7-4-28-6
		C672.2,376,666.9,374.8,661.6,373.7z"/>
	<path class="st0" d="M670.3,369.8c0,0.2,0.1,0.4,0.1,0.6c10.7,1.9,21.4,3.8,32.1,5.7c0.1-0.2,0.2-0.4,0.3-0.6
		c-3.9-6.7-7.8-13.3-11.8-20.2C683.9,360.2,677.1,365,670.3,369.8z"/>
	<path class="st0" d="M329.6,369.7c-6.8-4.8-13.6-9.5-20.6-14.4c-4,6.9-8,13.6-12.2,20.9c11.4-2,22.1-3.9,32.8-5.8
		C329.6,370.1,329.6,369.9,329.6,369.7z"/>
</g>
</svg>
